{
	"asset":{
		"generator":"Khronos glTF Blender I/O v3.6.27",
		"version":"2.0"
	},
	"scene":0,
	"scenes":[
		{
			"name":"Scene",
			"nodes":[
				0,
				1,
				2
			]
		}
	],
	"nodes":[
		{
			"mesh":0,
			"name":"Cube_Cube_1",
			"scale":[
				0,
				0,
				0
			]
		},
		{
			"mesh":1,
			"name":"Cube_Cube_1.001",
			"scale":[
				0,
				0,
				0
			]
		},
		{
			"camera":0,
			"name":"Camera",
			"rotation":[
				-0.23258590698242188,
				0.4023783504962921,
				0.0990082249045372,
				0.879882276058197
			],
			"translation":[
				6.034576892852783,
				4.457090377807617,
				5.177348613739014
			]
		}
	],
	"cameras":[
		{
			"name":"Camera",
			"perspective":{
				"aspectRatio":1.7777777777777777,
				"yfov":0.39959652046304894,
				"zfar":1000,
				"znear":0.10000000149011612
			},
			"type":"perspective"
		}
	],
	"animations":[
		{
			"channels":[
				{
					"sampler":0,
					"target":{
						"node":0,
						"path":"rotation"
					}
				},
				{
					"sampler":1,
					"target":{
						"node":0,
						"path":"scale"
					}
				}
			],
			"name":"Cube_Cube_1Action",
			"samplers":[
				{
					"input":16,
					"interpolation":"LINEAR",
					"output":17
				},
				{
					"input":16,
					"interpolation":"LINEAR",
					"output":18
				}
			]
		},
		{
			"channels":[
				{
					"sampler":0,
					"target":{
						"node":0,
						"path":"weights"
					}
				}
			],
			"name":"Key.003Action",
			"samplers":[
				{
					"input":19,
					"interpolation":"LINEAR",
					"output":20
				}
			]
		},
		{
			"channels":[
				{
					"sampler":0,
					"target":{
						"node":1,
						"path":"rotation"
					}
				},
				{
					"sampler":1,
					"target":{
						"node":1,
						"path":"scale"
					}
				}
			],
			"name":"Cube_Cube_1.001Action",
			"samplers":[
				{
					"input":16,
					"interpolation":"LINEAR",
					"output":21
				},
				{
					"input":16,
					"interpolation":"LINEAR",
					"output":22
				}
			]
		},
		{
			"channels":[
				{
					"sampler":0,
					"target":{
						"node":1,
						"path":"weights"
					}
				}
			],
			"name":"Key.007Action.001",
			"samplers":[
				{
					"input":19,
					"interpolation":"LINEAR",
					"output":23
				}
			]
		}
	],
	"materials":[
		{
			"doubleSided":true,
			"emissiveFactor":[
				0.5906182527542114,
				0.5840780138969421,
				0.5972020626068115
			],
			"name":"Mat.001",
			"pbrMetallicRoughness":{
				"baseColorFactor":[
					0,
					0,
					0,
					1
				],
				"metallicFactor":0,
				"roughnessFactor":0.5527864098548889
			}
		},
		{
			"doubleSided":true,
			"name":"Mat.003",
			"pbrMetallicRoughness":{
				"baseColorFactor":[
					0,
					0,
					0,
					1
				],
				"metallicFactor":0,
				"roughnessFactor":0.5527864098548889
			}
		}
	],
	"meshes":[
		{
			"extras":{
				"targetNames":[
					"Key 1",
					"Key 2"
				]
			},
			"name":"Mesh.001",
			"primitives":[
				{
					"attributes":{
						"POSITION":0,
						"NORMAL":1,
						"TEXCOORD_0":2
					},
					"indices":3,
					"material":0,
					"targets":[
						{
							"POSITION":4,
							"NORMAL":5
						},
						{
							"POSITION":6,
							"NORMAL":7
						}
					]
				}
			],
			"weights":[
				0,
				0
			]
		},
		{
			"extras":{
				"targetNames":[
					"Key 1",
					"Key 2"
				]
			},
			"name":"Mesh.005",
			"primitives":[
				{
					"attributes":{
						"POSITION":8,
						"NORMAL":9,
						"TEXCOORD_0":10
					},
					"indices":11,
					"material":1,
					"targets":[
						{
							"POSITION":12,
							"NORMAL":13
						},
						{
							"POSITION":14,
							"NORMAL":15
						}
					]
				}
			],
			"weights":[
				0,
				0
			]
		}
	],
	"accessors":[
		{
			"bufferView":0,
			"componentType":5126,
			"count":42,
			"max":[
				100,
				100,
				100
			],
			"min":[
				-100,
				-100,
				-100
			],
			"type":"VEC3"
		},
		{
			"bufferView":1,
			"componentType":5126,
			"count":42,
			"type":"VEC3"
		},
		{
			"bufferView":2,
			"componentType":5126,
			"count":42,
			"type":"VEC2"
		},
		{
			"bufferView":3,
			"componentType":5123,
			"count":72,
			"type":"SCALAR"
		},
		{
			"bufferView":4,
			"componentType":5126,
			"count":42,
			"max":[
				0,
				0,
				0
			],
			"min":[
				-58.819461822509766,
				-58.819461822509766,
				-7.62939453125e-06
			],
			"type":"VEC3"
		},
		{
			"bufferView":5,
			"componentType":5126,
			"count":42,
			"type":"VEC3"
		},
		{
			"bufferView":6,
			"componentType":5126,
			"count":42,
			"max":[
				0,
				0,
				58.819461822509766
			],
			"min":[
				0,
				-7.62939453125e-06,
				0
			],
			"type":"VEC3"
		},
		{
			"bufferView":7,
			"componentType":5126,
			"count":42,
			"type":"VEC3"
		},
		{
			"bufferView":8,
			"componentType":5126,
			"count":350,
			"max":[
				103.20706939697266,
				103.20706939697266,
				103.20706939697266
			],
			"min":[
				-103.20706939697266,
				-103.20706939697266,
				-103.20706939697266
			],
			"type":"VEC3"
		},
		{
			"bufferView":9,
			"componentType":5126,
			"count":350,
			"type":"VEC3"
		},
		{
			"bufferView":10,
			"componentType":5126,
			"count":350,
			"type":"VEC2"
		},
		{
			"bufferView":11,
			"componentType":5123,
			"count":714,
			"type":"SCALAR"
		},
		{
			"bufferView":12,
			"componentType":5126,
			"count":350,
			"max":[
				0,
				0,
				0
			],
			"min":[
				-60.000003814697266,
				-60.000003814697266,
				-7.62939453125e-06
			],
			"type":"VEC3"
		},
		{
			"bufferView":13,
			"componentType":5126,
			"count":350,
			"type":"VEC3"
		},
		{
			"bufferView":14,
			"componentType":5126,
			"count":350,
			"max":[
				0,
				0,
				60.000003814697266
			],
			"min":[
				0,
				-7.62939453125e-06,
				0
			],
			"type":"VEC3"
		},
		{
			"bufferView":15,
			"componentType":5126,
			"count":350,
			"type":"VEC3"
		},
		{
			"bufferView":16,
			"componentType":5126,
			"count":25,
			"max":[
				1
			],
			"min":[
				0
			],
			"type":"SCALAR"
		},
		{
			"bufferView":17,
			"componentType":5126,
			"count":25,
			"type":"VEC4"
		},
		{
			"bufferView":18,
			"componentType":5126,
			"count":25,
			"type":"VEC3"
		},
		{
			"bufferView":19,
			"componentType":5126,
			"count":38,
			"max":[
				2.5416666666666665
			],
			"min":[
				1
			],
			"type":"SCALAR"
		},
		{
			"bufferView":20,
			"componentType":5126,
			"count":76,
			"type":"SCALAR"
		},
		{
			"bufferView":21,
			"componentType":5126,
			"count":25,
			"type":"VEC4"
		},
		{
			"bufferView":22,
			"componentType":5126,
			"count":25,
			"type":"VEC3"
		},
		{
			"bufferView":23,
			"componentType":5126,
			"count":76,
			"type":"SCALAR"
		}
	],
	"bufferViews":[
		{
			"buffer":0,
			"byteLength":504,
			"byteOffset":0,
			"target":34962
		},
		{
			"buffer":0,
			"byteLength":504,
			"byteOffset":504,
			"target":34962
		},
		{
			"buffer":0,
			"byteLength":336,
			"byteOffset":1008,
			"target":34962
		},
		{
			"buffer":0,
			"byteLength":144,
			"byteOffset":1344,
			"target":34963
		},
		{
			"buffer":0,
			"byteLength":504,
			"byteOffset":1488,
			"target":34962
		},
		{
			"buffer":0,
			"byteLength":504,
			"byteOffset":1992,
			"target":34962
		},
		{
			"buffer":0,
			"byteLength":504,
			"byteOffset":2496,
			"target":34962
		},
		{
			"buffer":0,
			"byteLength":504,
			"byteOffset":3000,
			"target":34962
		},
		{
			"buffer":0,
			"byteLength":4200,
			"byteOffset":3504,
			"target":34962
		},
		{
			"buffer":0,
			"byteLength":4200,
			"byteOffset":7704,
			"target":34962
		},
		{
			"buffer":0,
			"byteLength":2800,
			"byteOffset":11904,
			"target":34962
		},
		{
			"buffer":0,
			"byteLength":1428,
			"byteOffset":14704,
			"target":34963
		},
		{
			"buffer":0,
			"byteLength":4200,
			"byteOffset":16132,
			"target":34962
		},
		{
			"buffer":0,
			"byteLength":4200,
			"byteOffset":20332,
			"target":34962
		},
		{
			"buffer":0,
			"byteLength":4200,
			"byteOffset":24532,
			"target":34962
		},
		{
			"buffer":0,
			"byteLength":4200,
			"byteOffset":28732,
			"target":34962
		},
		{
			"buffer":0,
			"byteLength":100,
			"byteOffset":32932
		},
		{
			"buffer":0,
			"byteLength":400,
			"byteOffset":33032
		},
		{
			"buffer":0,
			"byteLength":300,
			"byteOffset":33432
		},
		{
			"buffer":0,
			"byteLength":152,
			"byteOffset":33732
		},
		{
			"buffer":0,
			"byteLength":304,
			"byteOffset":33884
		},
		{
			"buffer":0,
			"byteLength":400,
			"byteOffset":34188
		},
		{
			"buffer":0,
			"byteLength":300,
			"byteOffset":34588
		},
		{
			"buffer":0,
			"byteLength":304,
			"byteOffset":34888
		}
	],
	"buffers":[
		{
			"byteLength":35192,
			"uri":"data:application/octet-stream;base64,"
		}
	]
}
